HIERARCHY
ROOT Hips
{
	OFFSET 0.000000 0.000000 0.000000
	CHANNELS 6 Xposition Yposition Zposition Zrotation Yrotation Xrotation 
	JOINT LeftUpLeg_virtual
	{
		OFFSET 0.000000 0.000000 0.000000
		CHANNELS 3 Zrotation Yrotation Xrotation
		JOINT LeftUpLeg
		{
			OFFSET 8.479694 -4.795517 -0.379053
			CHANNELS 3 Zrotation Yrotation Xrotation
			JOINT LeftLeg
			{
				OFFSET 0.485052 -32.551468 0.112863
				CHANNELS 3 Zrotation Yrotation Xrotation
				JOINT LeftFoot
				{
					OFFSET 0.438033 -32.635670 -3.012641
					CHANNELS 3 Zrotation Yrotation Xrotation
					JOINT LeftToeBase
					{
						OFFSET 0.970169 -13.225353 11.864223
						CHANNELS 3 Zrotation Yrotation Xrotation
						End Site
						{
							OFFSET 0.000000 0.000000 0.000000
						}
					}
				}
			}
		}
	}
	JOINT RightUpLeg_virtual
	{
		OFFSET 0.000000 0.000000 0.000000
		CHANNELS 3 Zrotation Yrotation Xrotation
		JOINT RightUpLeg
		{
			OFFSET -8.479694 -4.795517 -0.379053
			CHANNELS 3 Zrotation Yrotation Xrotation
			JOINT RightLeg
			{
				OFFSET -0.484100 -32.551483 0.112903
				CHANNELS 3 Zrotation Yrotation Xrotation
				JOINT RightFoot
				{
					OFFSET -0.438985 -32.635651 -3.012681
					CHANNELS 3 Zrotation Yrotation Xrotation
					JOINT RightToeBase
					{
						OFFSET -0.970169 -13.225354 11.864223
						CHANNELS 3 Zrotation Yrotation Xrotation
						End Site
						{
							OFFSET 0.000000 0.000000 0.000000
						}
					}
				}
			}
		}
	}
	JOINT Spine_virtual
	{
		OFFSET 0.000000 0.000000 0.000000
		CHANNELS 3 Zrotation Yrotation Xrotation
		JOINT Spine
		{
			OFFSET 0.000000 7.722015 1.166203
			CHANNELS 3 Zrotation Yrotation Xrotation
			JOINT Spine1
			{
				OFFSET 0.000000 12.024086 0.248766
				CHANNELS 3 Zrotation Yrotation Xrotation
				JOINT Spine2
				{
					OFFSET -0.000000 11.503036 -0.491240
					CHANNELS 3 Zrotation Yrotation Xrotation
					JOINT Neck_virtual
					{
						OFFSET 0.000000 0.000000 0.000000
						CHANNELS 3 Zrotation Yrotation Xrotation
						JOINT Neck
						{
							OFFSET 0.000000 18.430687 -3.123054
							CHANNELS 3 Zrotation Yrotation Xrotation
							JOINT Head
							{
								OFFSET -0.000000 9.051071 1.034021
								CHANNELS 3 Zrotation Yrotation Xrotation
								End Site
								{
									OFFSET 0.000000 0.000000 0.000000
								}
							}
						}
					}
					JOINT LeftShoulder_virtual
					{
						OFFSET 0.000000 0.000000 0.000000
						CHANNELS 3 Zrotation Yrotation Xrotation
						JOINT LeftShoulder
						{
							OFFSET 6.197824 13.665230 -4.064723
							CHANNELS 3 Zrotation Yrotation Xrotation
							JOINT LeftArm
							{
								OFFSET 7.778132 -0.187073 -1.709282
								CHANNELS 3 Zrotation Yrotation Xrotation
								JOINT LeftForeArm
								{
									OFFSET 21.954697 0.000000 -2.041093
									CHANNELS 3 Zrotation Yrotation Xrotation
									JOINT LeftHand
									{
										OFFSET 22.992908 0.000000 -0.870901
										CHANNELS 3 Zrotation Yrotation Xrotation
										End Site
										{
											OFFSET 0.000000 0.000000 0.000000
										}
									}
								}
							}
						}
					}
					JOINT RightShoulder_virtual
					{
						OFFSET 0.000000 0.000000 0.000000
						CHANNELS 3 Zrotation Yrotation Xrotation
						JOINT RightShoulder
						{
							OFFSET -6.197824 13.665230 -4.064723
							CHANNELS 3 Zrotation Yrotation Xrotation
							JOINT RightArm
							{
								OFFSET -7.778132 -0.187073 -1.709282
								CHANNELS 3 Zrotation Yrotation Xrotation
								JOINT RightForeArm
								{
									OFFSET -21.954697 0.000000 -2.041093
									CHANNELS 3 Zrotation Yrotation Xrotation
									JOINT RightHand
									{
										OFFSET -22.992908 0.000000 -0.870901
										CHANNELS 3 Zrotation Yrotation Xrotation
										End Site
										{
											OFFSET 0.000000 0.000000 0.000000
										}
									}
								}
							}
						}
					}
				}
			}
		}
	}
}
MOTION
Frames: 4
Frame Time: 0.033333
-45.508862 79.409058 134.677048 -0.247554 71.558102 -0.178255 -6.505481 -0.524739 13.117961 -3.941090 -10.178841 -19.296772 8.639294 4.067521 32.080975 -3.153871 -10.413484 -18.476464 0.000000 0.000000 0.000000 -0.908642 0.090472 10.792584 -0.279982 -2.392848 -47.482253 -0.849574 4.283571 42.093305 6.119750 17.350257 1.799224 0.000000 0.000000 0.000000 -1.869629 3.107391 3.023658 0.046873 -0.773146 -2.823947 0.365516 -2.043360 5.985388 0.000724 0.016811 0.045627 0.078988 -0.758438 6.900313 -1.509381 4.609268 -3.479098 0.000000 0.000000 0.000000 1.307598 -0.100782 4.177996 -3.314896 0.285143 -1.952360 -65.459372 0.251112 29.925285 -1.025004 -46.458779 13.712537 0.000000 0.000000 0.000000 -2.546085 1.257689 3.509316 25.202285 -6.736376 0.395610 52.515924 -1.818470 9.407229 -6.832930 50.359118 -3.207637 0.000000 0.000000 0.000000 
-42.944569 79.321182 135.010361 -0.474568 76.110806 -0.240841 -6.897371 -0.768199 13.273134 -3.063256 -11.266278 -17.635844 7.847373 3.249769 32.480821 -3.769507 -11.206304 -18.394572 0.000000 0.000000 0.000000 -0.933301 0.038337 10.479202 0.287533 -1.170451 -49.359284 -1.275958 4.039795 35.768321 6.825543 16.958743 3.626074 0.000000 0.000000 0.000000 -1.859652 3.110441 3.282044 0.338112 -0.687486 -2.366089 0.334527 -2.136237 5.951174 0.017709 -0.035595 0.031965 0.013440 -0.839722 7.037928 -1.367063 4.257156 -4.003206 0.000000 0.000000 0.000000 1.243406 -0.165632 4.263511 -3.419458 -0.001719 -1.666522 -65.194682 0.212013 29.299568 -0.868735 -46.272742 14.053166 0.000000 0.000000 0.000000 -2.655558 1.259251 3.706359 24.781584 -6.450130 0.417265 53.207583 -1.864221 9.988271 -6.988490 50.429144 -3.261109 0.000000 0.000000 0.000000 
-40.316265 79.165009 135.343658 -1.352903 80.681323 -1.060388 -7.397766 -0.706589 13.635575 -1.692428 -12.543695 -16.110936 7.074700 2.576413 32.882621 -4.181274 -11.991808 -18.411980 0.000000 0.000000 0.000000 -0.806708 0.020502 10.286514 0.674610 0.076138 -50.894065 -1.611235 3.876645 30.943369 7.119448 16.514113 4.622191 0.000000 0.000000 0.000000 -1.601055 2.938644 3.568570 0.640299 -0.508104 -1.902541 0.282434 -2.138321 5.988375 0.026637 0.006883 0.075046 -0.046934 -1.003699 7.067294 -1.329321 3.943924 -4.447722 0.000000 0.000000 0.000000 1.165663 -0.225290 4.217525 -3.586704 -0.177621 -1.350865 -64.875384 0.224533 28.589195 -0.799929 -46.184100 14.512631 0.000000 0.000000 0.000000 -2.764945 1.230713 3.704619 24.358162 -6.230397 0.262858 53.654121 -1.925273 10.862523 -6.879290 50.717758 -3.152208 0.000000 0.000000 0.000000 
-37.582630 78.925186 135.644516 -6.485000 85.565086 -6.023983 -7.845539 -1.108659 14.123449 0.072668 -13.751344 -14.690531 6.294124 1.943567 33.327676 -4.465249 -12.977261 -18.618302 0.000000 0.000000 0.000000 -0.604461 0.104895 10.210708 0.912270 1.149354 -52.091653 -1.865674 3.383743 27.815483 6.923496 15.998449 4.902691 0.000000 0.000000 0.000000 -1.001205 2.701857 3.864098 0.983602 -0.399537 -1.705001 0.229433 -2.169618 5.897622 -0.009876 0.040906 0.085934 -0.134629 -1.126714 7.176195 -1.403517 3.639156 -4.626142 0.000000 0.000000 0.000000 1.084078 -0.268772 4.260372 -3.796392 -0.196785 -1.042289 -64.542030 0.199616 27.754470 -0.902291 -46.300234 15.072720 0.000000 0.000000 0.000000 -2.875830 1.211241 3.796790 24.191823 -6.086176 0.187011 53.736609 -1.738124 11.858401 -6.843487 50.978148 -3.195456 0.000000 0.000000 0.000000 
